<svg xmlns="http://www.w3.org/2000/svg" xmlns:xlink="http://www.w3.org/1999/xlink" width="500" zoomAndPan="magnify" viewBox="0 0 375 374.999991" height="500" preserveAspectRatio="xMidYMid meet" version="1.0"><defs><g/></defs><rect x="-37.5" width="450" fill="#ffffff" y="-37.499999" height="449.999989" fill-opacity="1"/><rect x="-37.5" width="450" fill="#ffffff" y="-37.499999" height="449.999989" fill-opacity="1"/><rect x="-37.5" width="450" fill="#ffffff" y="-37.499999" height="449.999989" fill-opacity="1"/><g fill="#f87d0a" fill-opacity="1"><g transform="translate(71.925974, 261.329444)"><g><path d="M 103.421875 -9.21875 C 103.910156 -7.28125 104.15625 -5.742188 104.15625 -4.609375 C 104.15625 -3.148438 103.828125 -2.054688 103.171875 -1.328125 C 102.523438 -0.609375 101.394531 0.078125 99.78125 0.734375 C 96.863281 1.859375 94.757812 2.421875 93.46875 2.421875 C 91.6875 2.421875 90.554688 1.289062 90.078125 -0.96875 L 79.625 -62.890625 L 34.46875 -58.265625 L 11.40625 -5.34375 C 10.269531 -2.914062 9.132812 -1.253906 8 -0.359375 C 6.875 0.523438 5.5 0.96875 3.875 0.96875 C 0.800781 0.96875 -1.421875 0.722656 -2.796875 0.234375 C -4.171875 -0.242188 -4.859375 -1.128906 -4.859375 -2.421875 C -4.859375 -3.398438 -4.617188 -4.453125 -4.140625 -5.578125 L 61.171875 -154.171875 C 62.304688 -156.765625 63.238281 -158.503906 63.96875 -159.390625 C 64.695312 -160.285156 65.867188 -161.054688 67.484375 -161.703125 C 70.890625 -162.835938 73.078125 -163.40625 74.046875 -163.40625 C 75.660156 -163.40625 76.550781 -162.429688 76.71875 -160.484375 L 91.28125 -77.6875 L 92.5 -77.9375 C 93.789062 -78.101562 95.410156 -78.1875 97.359375 -78.1875 C 99.140625 -78.1875 100.429688 -77.820312 101.234375 -77.09375 C 102.046875 -76.363281 102.695312 -74.785156 103.1875 -72.359375 C 103.507812 -70.410156 103.671875 -69.195312 103.671875 -68.71875 C 103.671875 -67.414062 102.984375 -66.441406 101.609375 -65.796875 C 100.234375 -65.148438 97.601562 -64.582031 93.71875 -64.09375 Z M 70.640625 -115.8125 L 68.46875 -136.203125 L 40.78125 -72.84375 L 77.203125 -76.484375 Z M 70.640625 -115.8125 "/></g></g></g><g fill="#f87d0a" fill-opacity="1"><g transform="translate(188.464021, 261.329444)"><g><path d="M 110.234375 -162.671875 C 108.296875 -162.992188 107.003906 -163.15625 106.359375 -163.15625 C 104.253906 -163.15625 102.796875 -161.941406 101.984375 -159.515625 C 95.347656 -139.765625 86.804688 -115.203125 76.359375 -85.828125 C 65.921875 -56.453125 58.757812 -37.394531 54.875 -28.65625 C 52.9375 -24.28125 51.15625 -20.71875 49.53125 -17.96875 C 47.914062 -15.21875 46.378906 -13.84375 44.921875 -13.84375 C 43.140625 -13.84375 41.601562 -18.859375 40.3125 -28.890625 C 37.238281 -51.710938 34.890625 -72.304688 33.265625 -90.671875 C 31.648438 -109.046875 30.113281 -129.082031 28.65625 -150.78125 L 28.171875 -159.03125 C 28.003906 -160.8125 27.71875 -162.023438 27.3125 -162.671875 C 26.914062 -163.316406 26.234375 -163.640625 25.265625 -163.640625 C 24.929688 -163.640625 23.3125 -163.316406 20.40625 -162.671875 C 17.488281 -161.703125 15.664062 -160.851562 14.9375 -160.125 C 14.207031 -159.394531 13.925781 -157.734375 14.09375 -155.140625 C 18.300781 -95.898438 22.101562 -55.679688 25.5 -34.484375 C 27.445312 -22.503906 29.59375 -13.4375 31.9375 -7.28125 C 34.28125 -1.132812 37.640625 1.9375 42.015625 1.9375 C 48.972656 1.9375 55.523438 -3 61.671875 -12.875 C 65.078125 -18.375 68.882812 -26.300781 73.09375 -36.65625 C 79.40625 -52.519531 93.726562 -92.34375 116.0625 -156.125 C 116.382812 -156.925781 116.546875 -157.894531 116.546875 -159.03125 C 116.546875 -160.164062 116.140625 -160.894531 115.328125 -161.21875 C 114.523438 -161.539062 112.828125 -162.023438 110.234375 -162.671875 Z M 110.234375 -162.671875 "/></g></g></g></svg>